<?xml version="1.0" encoding="UTF-8" standalone="no"?>
<!-- Created with Inkscape (http://www.inkscape.org/) -->

<svg
   xmlns:dc="http://purl.org/dc/elements/1.1/"
   xmlns:cc="http://creativecommons.org/ns#"
   xmlns:rdf="http://www.w3.org/1999/02/22-rdf-syntax-ns#"
   xmlns:svg="http://www.w3.org/2000/svg"
   xmlns="http://www.w3.org/2000/svg"
   xmlns:xlink="http://www.w3.org/1999/xlink"
   xmlns:sodipodi="http://sodipodi.sourceforge.net/DTD/sodipodi-0.dtd"
   xmlns:inkscape="http://www.inkscape.org/namespaces/inkscape"
   width="637.56"
   height="637.56"
   id="svg3380"
   version="1.1"
   inkscape:version="0.48.1 r9760"
   sodipodi:docname="New document 4">
  <defs
     id="defs3382">
    <linearGradient
       id="linearGradient4198">
      <stop
         style="stop-color:#61a7e0;stop-opacity:1;"
         offset="0"
         id="stop4200" />
      <stop
         style="stop-color:#b7d4f1;stop-opacity:1;"
         offset="1"
         id="stop4202" />
    </linearGradient>
    <linearGradient
       id="linearGradient4198-2">
      <stop
         style="stop-color:#61a7e0;stop-opacity:1;"
         offset="0"
         id="stop4200-6" />
      <stop
         style="stop-color:#b7d4f1;stop-opacity:1;"
         offset="1"
         id="stop4202-5" />
    </linearGradient>
    <linearGradient
       inkscape:collect="always"
       xlink:href="#linearGradient4198-2"
       id="linearGradient4890"
       gradientUnits="userSpaceOnUse"
       gradientTransform="translate(-32.924363,-28.656742)"
       x1="351.45438"
       y1="160.70227"
       x2="351.45438"
       y2="460.40601" />
    <linearGradient
       y2="460.40601"
       x2="351.45438"
       y1="160.70227"
       x1="351.45438"
       gradientTransform="translate(-32.733187,-36.320468)"
       gradientUnits="userSpaceOnUse"
       id="linearGradient5081"
       xlink:href="#linearGradient4198-2-4"
       inkscape:collect="always" />
    <linearGradient
       id="linearGradient4198-2-4">
      <stop
         style="stop-color:#61a7e0;stop-opacity:1;"
         offset="0"
         id="stop4200-6-1" />
      <stop
         style="stop-color:#b7d4f1;stop-opacity:1;"
         offset="1"
         id="stop4202-5-0" />
    </linearGradient>
  </defs>
  <sodipodi:namedview
     id="base"
     pagecolor="#ffffff"
     bordercolor="#666666"
     borderopacity="1.0"
     inkscape:pageopacity="0.0"
     inkscape:pageshadow="2"
     inkscape:zoom="0.7"
     inkscape:cx="269.89245"
     inkscape:cy="231.74652"
     inkscape:document-units="px"
     inkscape:current-layer="layer1"
     showgrid="false"
     fit-margin-top="0"
     fit-margin-left="0"
     fit-margin-right="0"
     fit-margin-bottom="0"
     inkscape:window-width="1280"
     inkscape:window-height="728"
     inkscape:window-x="0"
     inkscape:window-y="25"
     inkscape:window-maximized="1" />
  <metadata
     id="metadata3385">
    <rdf:RDF>
      <cc:Work
         rdf:about="">
        <dc:format>image/svg+xml</dc:format>
        <dc:type
           rdf:resource="http://purl.org/dc/dcmitype/StillImage" />
        <dc:title></dc:title>
      </cc:Work>
    </rdf:RDF>
  </metadata>
  <g
     inkscape:label="Layer 1"
     inkscape:groupmode="layer"
     id="layer1"
     transform="translate(-53.265923,-194.96289)">
    <g
       transform="matrix(1.25,0,0,-1.25,52.361036,820.19113)"
       id="g5106">
      <path
         d="m 45.7699,224.298 c 0,123.831 100.3821,224.214 224.2131,224.214 123.831,0 224.213,-100.383 224.213,-224.214 C 494.196,100.467 393.814,0.0851562 269.983,0.0851562 146.152,0.0851562 45.7699,100.467 45.7699,224.298"
         style="fill:#306ebd;fill-opacity:1;fill-rule:nonzero;stroke:none"
         id="path3038"
         inkscape:connector-curvature="0" />
      <path
         d="m 430.939,482.111 c 14.059,14.059 41.509,9.403 61.312,-10.4 19.804,-19.804 24.46,-47.254 10.401,-61.313 -12.729,-12.729 -36.435,-10.116 -55.504,5.19 l -46.142,-46.143 -11.314,11.314 46.175,46.175 c -15.074,19.013 -17.585,42.521 -4.928,55.177"
         style="fill:#306ebd;fill-opacity:1;fill-rule:nonzero;stroke:none"
         id="path3034"
         inkscape:connector-curvature="0" />
      <path
         d="m 8.84375,374.398 c -14.05898,14.059 -9.402734,41.509 10.40075,61.313 19.8035,19.803 47.2535,24.46 61.3125,10.401 12.7289,-12.729 10.116,-36.435 -5.1894,-55.504 L 121.51,344.465 110.196,333.152 64.0207,379.327 C 45.0082,364.253 21.5,361.742 8.84375,374.398"
         style="fill:#306ebd;fill-opacity:1;fill-rule:nonzero;stroke:none"
         id="path3036"
         inkscape:connector-curvature="0" />
      <path
         transform="matrix(1.3637131,0,0,-1.3654009,-209.24004,650.63237)"
         d="m 501.04596,310.71841 c 0,82.80638 -67.12783,149.93421 -149.9342,149.93421 -82.80638,0 -149.93421,-67.12783 -149.93421,-149.93421 0,-82.80637 67.12783,-149.9342 149.93421,-149.9342 82.80637,0 149.9342,67.12783 149.9342,149.9342 z"
         sodipodi:ry="149.9342"
         sodipodi:rx="149.9342"
         sodipodi:cy="310.71841"
         sodipodi:cx="351.11176"
         id="path3410-9"
         style="opacity:0.78580005;fill:url(#linearGradient5081);fill-opacity:1;fill-rule:nonzero;stroke:none"
         sodipodi:type="arc" />
      <path
         transform="matrix(1.0303418,0.12365032,0.11291395,-0.91623388,5.7988351,422.83213)"
         d="m 388.43715,256.94455 c 0,63.58971 -75.34179,115.13935 -168.28059,115.13935 -92.93881,0 -168.280599,-51.54964 -168.280599,-115.13935 0,-63.58971 75.341789,-115.13935 168.280599,-115.13935 92.9388,0 168.28059,51.54964 168.28059,115.13935 z"
         sodipodi:ry="115.13935"
         sodipodi:rx="168.28059"
         sodipodi:cy="256.94455"
         sodipodi:cx="220.15656"
         id="path5104"
         style="opacity:0.78580005;fill:#3465a4;fill-opacity:1;fill-rule:nonzero;stroke:none"
         sodipodi:type="arc" />
      <path
         d="m 136.084,255.375 c 0,41.261 23.859,74.709 53.291,74.709 29.432,0 53.291,-33.448 53.291,-74.709 0,-41.261 -23.859,-74.709 -53.291,-74.709 -29.432,0 -53.291,33.448 -53.291,74.709"
         style="fill:#ffffff;fill-opacity:1;fill-rule:nonzero;stroke:none"
         id="path3364"
         inkscape:connector-curvature="0" />
      <path
         d="m 136.084,255.375 c 0,41.261 23.859,74.709 53.291,74.709 29.432,0 53.291,-33.448 53.291,-74.709 0,-41.261 -23.859,-74.709 -53.291,-74.709 -29.432,0 -53.291,33.448 -53.291,74.709 z"
         style="fill:none;stroke:#ffffff;stroke-width:1;stroke-linecap:butt;stroke-linejoin:miter;stroke-miterlimit:3.86370993;stroke-opacity:1;stroke-dasharray:none"
         id="path3366"
         inkscape:connector-curvature="0" />
      <path
         d="m 284.833,281.542 c 0,41.261 23.859,74.709 53.291,74.709 29.432,0 53.291,-33.448 53.291,-74.709 0,-41.261 -23.859,-74.709 -53.291,-74.709 -29.432,0 -53.291,33.448 -53.291,74.709"
         style="fill:#ffffff;fill-opacity:1;fill-rule:nonzero;stroke:none"
         id="path3368"
         inkscape:connector-curvature="0" />
      <path
         d="m 284.833,281.542 c 0,41.261 23.859,74.709 53.291,74.709 29.432,0 53.291,-33.448 53.291,-74.709 0,-41.261 -23.859,-74.709 -53.291,-74.709 -29.432,0 -53.291,33.448 -53.291,74.709 z"
         style="fill:none;stroke:#ffffff;stroke-width:1;stroke-linecap:butt;stroke-linejoin:miter;stroke-miterlimit:3.86370993;stroke-opacity:1;stroke-dasharray:none"
         id="path3370"
         inkscape:connector-curvature="0" />
      <path
         d="m 162.749,257 c 0,25.912 14.327,46.916 32,46.916 0.814,0 1.62,-0.044 2.418,-0.132 l 0,-38.784 29.119,0 c 0.305,-2.6 0.463,-5.273 0.463,-8 0,-25.912 -14.326,-46.916 -32,-46.916 -17.673,0 -32,21.004 -32,46.916"
         style="fill:#231f20;fill-opacity:1;fill-rule:nonzero;stroke:none"
         id="path3372"
         inkscape:connector-curvature="0" />
      <path
         d="m 162.749,257 c 0,25.912 14.327,46.916 32,46.916 0.814,0 1.62,-0.044 2.418,-0.132 l 0,-38.784 29.119,0 c 0.305,-2.6 0.463,-5.273 0.463,-8 0,-25.912 -14.326,-46.916 -32,-46.916 -17.673,0 -32,21.004 -32,46.916 z"
         style="fill:none;stroke:#231f20;stroke-width:1;stroke-linecap:butt;stroke-linejoin:miter;stroke-miterlimit:3.86370993;stroke-opacity:1;stroke-dasharray:none"
         id="path3374"
         inkscape:connector-curvature="0" />
      <path
         d="m 312.749,282 c 0,25.912 14.327,46.916 32,46.916 0.814,0 1.62,-0.044 2.418,-0.132 l 0,-38.784 29.119,0 c 0.305,-2.6 0.463,-5.273 0.463,-8 0,-25.912 -14.326,-46.916 -32,-46.916 -17.673,0 -32,21.004 -32,46.916"
         style="fill:#231f20;fill-opacity:1;fill-rule:nonzero;stroke:none"
         id="path3376"
         inkscape:connector-curvature="0" />
      <path
         d="m 312.749,282 c 0,25.912 14.327,46.916 32,46.916 0.814,0 1.62,-0.044 2.418,-0.132 l 0,-38.784 29.119,0 c 0.305,-2.6 0.463,-5.273 0.463,-8 0,-25.912 -14.326,-46.916 -32,-46.916 -17.673,0 -32,21.004 -32,46.916 z"
         style="fill:none;stroke:#231f20;stroke-width:1;stroke-linecap:butt;stroke-linejoin:miter;stroke-miterlimit:3.86370993;stroke-opacity:1;stroke-dasharray:none"
         id="path3378"
         inkscape:connector-curvature="0" />
    </g>
  </g>
</svg>
