<?xml version="1.0" encoding="UTF-8" standalone="no"?>
<!-- Created with Inkscape (http://www.inkscape.org/) -->

<svg
   xmlns:dc="http://purl.org/dc/elements/1.1/"
   xmlns:cc="http://creativecommons.org/ns#"
   xmlns:rdf="http://www.w3.org/1999/02/22-rdf-syntax-ns#"
   xmlns:svg="http://www.w3.org/2000/svg"
   xmlns="http://www.w3.org/2000/svg"
   xmlns:xlink="http://www.w3.org/1999/xlink"
   xmlns:sodipodi="http://sodipodi.sourceforge.net/DTD/sodipodi-0.dtd"
   xmlns:inkscape="http://www.inkscape.org/namespaces/inkscape"
   id="svg3378"
   version="1.1"
   inkscape:version="0.48.1 r9760"
   width="637.56262"
   height="637.56"
   xml:space="preserve"
   sodipodi:docname="luma.svg"><metadata
     id="metadata3384"><rdf:RDF><cc:Work
         rdf:about=""><dc:format>image/svg+xml</dc:format><dc:type
           rdf:resource="http://purl.org/dc/dcmitype/StillImage" /><dc:title /></cc:Work></rdf:RDF></metadata><defs
     id="defs3382"><linearGradient
       id="linearGradient4105"><stop
         style="stop-color:#52a0dd;stop-opacity:1;"
         offset="0"
         id="stop4107" /><stop
         style="stop-color:#b7d4f1;stop-opacity:1;"
         offset="1"
         id="stop4109" /></linearGradient><clipPath
       clipPathUnits="userSpaceOnUse"
       id="clipPath3400"><path
         d="m 645.438,2255.42 c 0,1131.26 917.042,2048.31 2048.312,2048.31 1131.26,0 2048.3,-917.05 2048.3,-2048.31 0,-1131.27 -917.04,-2048.311 -2048.3,-2048.311 -1131.27,0 -2048.312,917.041 -2048.312,2048.311 z"
         id="path3402"
         inkscape:connector-curvature="0" /></clipPath><clipPath
       clipPathUnits="userSpaceOnUse"
       id="clipPath3624"><path
         d="M 889.426,1959.69 C 828.957,2547.5 1553.02,3107.02 2506.68,3209.41 3460.35,3311.8 4282.44,2918.3 4342.91,2330.48 4403.38,1742.67 3679.32,1183.16 2725.66,1080.76 1771.99,978.367 949.895,1371.87 889.426,1959.69 z"
         id="path3626"
         inkscape:connector-curvature="0" /></clipPath><linearGradient
       inkscape:collect="always"
       xlink:href="#linearGradient4105"
       id="linearGradient4111"
       x1="213.25031"
       y1="78.725807"
       x2="213.25031"
       y2="591.37933"
       gradientUnits="userSpaceOnUse"
       gradientTransform="matrix(0.98305085,0,0,0.98028169,-116.25908,-6.2218481)" /><linearGradient
       inkscape:collect="always"
       xlink:href="#linearGradient4105-5"
       id="linearGradient4111-1"
       x1="213.25031"
       y1="78.725807"
       x2="213.25031"
       y2="591.37933"
       gradientUnits="userSpaceOnUse"
       gradientTransform="matrix(0.98305085,0,0,0.98028169,-116.25908,-6.2218481)" /><linearGradient
       id="linearGradient4105-5"><stop
         style="stop-color:#52a0dd;stop-opacity:1;"
         offset="0"
         id="stop4107-8" /><stop
         style="stop-color:#b7d4f1;stop-opacity:1;"
         offset="1"
         id="stop4109-1" /></linearGradient><linearGradient
       inkscape:collect="always"
       xlink:href="#linearGradient4105"
       id="linearGradient4159"
       gradientUnits="userSpaceOnUse"
       gradientTransform="matrix(0.98305085,0,0,0.98028169,-116.25908,-6.2218481)"
       x1="213.25031"
       y1="78.725807"
       x2="213.25031"
       y2="591.37933" /></defs><sodipodi:namedview
     pagecolor="#ffffff"
     bordercolor="#666666"
     borderopacity="1"
     objecttolerance="10"
     gridtolerance="10"
     guidetolerance="10"
     inkscape:pageopacity="0"
     inkscape:pageshadow="2"
     inkscape:window-width="1280"
     inkscape:window-height="728"
     id="namedview3380"
     showgrid="false"
     inkscape:zoom="0.34646465"
     inkscape:cx="587.51669"
     inkscape:cy="-123.54081"
     inkscape:window-x="0"
     inkscape:window-y="25"
     inkscape:window-maximized="1"
     inkscape:current-layer="g3386"
     fit-margin-top="0"
     fit-margin-left="0"
     fit-margin-right="0"
     fit-margin-bottom="0" /><g
     id="g3386"
     inkscape:groupmode="layer"
     inkscape:label="ink_ext_XXXXXX"
     transform="matrix(1.25,0,0,-1.25,-42.992668,775.64596)"><path
       sodipodi:type="arc"
       style="opacity:1;fill:#306ebd;fill-opacity:1;stroke:none"
       id="path4103-3"
       sodipodi:cx="213.586"
       sodipodi:cy="330.16934"
       sodipodi:rx="251.10786"
       sodipodi:ry="251.10786"
       d="m 464.69386,330.16934 a 251.10786,251.10786 0 1 1 -502.215726,0 251.10786,251.10786 0 1 1 502.215726,0 z"
       transform="matrix(0.89310347,0,0,-0.89310341,112.93127,639.42285)" /><g
       id="g3912"
       transform="translate(-16.580822,-182.14979)"><g
   transform="translate(-9.7828887,0)"
   id="g3740"><g
     id="g3388"
     transform="matrix(0.1,0,0,0.1,60.034985,302.48397)"><path
       d="m 4309.39,4821.11 c 140.59,140.59 415.09,94.03 613.12,-104 198.04,-198.04 244.6,-472.54 104.01,-613.13 -127.29,-127.29 -364.35,-101.16 -555.04,51.9 l -461.42,-461.43 -113.14,113.14 461.75,461.75 c -150.74,190.13 -175.85,425.21 -49.28,551.77"
       style="fill:#306ebd;fill-opacity:1;fill-rule:nonzero;stroke:none"
       id="path3390"
       inkscape:connector-curvature="0" /><path
       d="m 88.4375,3743.98 c -140.5898,140.59 -94.02734,415.09 104.0075,613.13 198.035,198.03 472.535,244.6 613.125,104.01 127.289,-127.29 101.16,-364.35 -51.894,-555.04 L 1215.1,3444.65 1101.96,3331.52 640.207,3793.27 C 450.082,3642.53 215,3617.42 88.4375,3743.98"
       style="fill:#306ebd;fill-opacity:1;fill-rule:nonzero;stroke:none"
       id="path3392"
       inkscape:connector-curvature="0" /><g
       id="g3396"><g
         id="g3398"
         clip-path="url(#clipPath3400)" /></g><g
       id="g3620"><g
         id="g3622"
         clip-path="url(#clipPath3624)" /></g><path
       d="m 1360.84,2553.75 c 0,412.61 238.59,747.09 532.91,747.09 294.32,0 532.91,-334.48 532.91,-747.09 0,-412.61 -238.59,-747.09 -532.91,-747.09 -294.32,0 -532.91,334.48 -532.91,747.09 z"
       style="fill:none;stroke:#ffffff;stroke-width:10;stroke-linecap:butt;stroke-linejoin:miter;stroke-miterlimit:3.86370993;stroke-opacity:1;stroke-dasharray:none"
       id="path3722"
       inkscape:connector-curvature="0" /><path
       d="m 2848.33,2815.42 c 0,412.61 238.59,747.09 532.91,747.09 294.32,0 532.91,-334.48 532.91,-747.09 0,-412.61 -238.59,-747.09 -532.91,-747.09 -294.32,0 -532.91,334.48 -532.91,747.09 z"
       style="fill:none;stroke:#ffffff;stroke-width:10;stroke-linecap:butt;stroke-linejoin:miter;stroke-miterlimit:3.86370993;stroke-opacity:1;stroke-dasharray:none"
       id="path3726"
       inkscape:connector-curvature="0" /><path
       d="m 1627.49,2570 c 0,259.12 143.27,469.16 320,469.16 8.14,0 16.2,-0.44 24.18,-1.32 l 0,-387.84 291.19,0 c 3.05,-26 4.63,-52.73 4.63,-80 0,-259.12 -143.26,-469.16 -320,-469.16 -176.73,0 -320,210.04 -320,469.16 z"
       style="fill:none;stroke:#231f20;stroke-width:10;stroke-linecap:butt;stroke-linejoin:miter;stroke-miterlimit:3.86370993;stroke-opacity:1;stroke-dasharray:none"
       id="path3730"
       inkscape:connector-curvature="0" /><path
       d="m 3127.49,2820 c 0,259.12 143.27,469.16 320,469.16 8.14,0 16.2,-0.44 24.18,-1.32 l 0,-387.84 291.19,0 c 3.05,-26 4.63,-52.73 4.63,-80 0,-259.12 -143.26,-469.16 -320,-469.16 -176.73,0 -320,210.04 -320,469.16 z"
       style="fill:none;stroke:#231f20;stroke-width:10;stroke-linecap:butt;stroke-linejoin:miter;stroke-miterlimit:3.86370993;stroke-opacity:1;stroke-dasharray:none"
       id="path3734"
       inkscape:connector-curvature="0" /><path
       sodipodi:type="arc"
       style="fill:url(#linearGradient4159);fill-opacity:1;stroke:none"
       id="path4103"
       sodipodi:cx="213.586"
       sodipodi:cy="330.16934"
       sodipodi:rx="251.10786"
       sodipodi:ry="251.10786"
       d="m 464.69386,330.16934 a 251.10786,251.10786 0 1 1 -502.215726,0 251.10786,251.10786 0 1 1 502.215726,0 z"
       transform="matrix(8.1379312,0,0,-8.1609192,953.33692,4951.0499)" /><path
       sodipodi:type="arc"
       style="fill:#4378c3;fill-opacity:1;fill-rule:nonzero;stroke:none"
       id="path4147"
       sodipodi:cx="326.51239"
       sodipodi:cy="346.76553"
       sodipodi:rx="216.83308"
       sodipodi:ry="26.69825"
       d="m 543.34547,346.76553 a 216.83308,26.69825 0 1 1 -433.66616,0 216.83308,26.69825 0 1 1 433.66616,0 z"
       transform="matrix(7.9669365,0.86465632,4.2955679,-39.875268,-1474.4203,15689.001)" /><path
       d="m 1360.84,2553.75 c 0,412.61 238.59,747.09 532.91,747.09 294.32,0 532.91,-334.48 532.91,-747.09 0,-412.61 -238.59,-747.09 -532.91,-747.09 -294.32,0 -532.91,334.48 -532.91,747.09"
       style="fill:#ffffff;fill-opacity:1;fill-rule:nonzero;stroke:none"
       id="path3720"
       inkscape:connector-curvature="0" /><path
       d="m 2848.33,2815.42 c 0,412.61 238.59,747.09 532.91,747.09 294.32,0 532.91,-334.48 532.91,-747.09 0,-412.61 -238.59,-747.09 -532.91,-747.09 -294.32,0 -532.91,334.48 -532.91,747.09"
       style="fill:#ffffff;fill-opacity:1;fill-rule:nonzero;stroke:none"
       id="path3724"
       inkscape:connector-curvature="0" /><path
       d="m 1627.49,2570 c 0,259.12 143.27,469.16 320,469.16 8.14,0 16.2,-0.44 24.18,-1.32 l 0,-387.84 291.19,0 c 3.05,-26 4.63,-52.73 4.63,-80 0,-259.12 -143.26,-469.16 -320,-469.16 -176.73,0 -320,210.04 -320,469.16"
       style="fill:#231f20;fill-opacity:1;fill-rule:nonzero;stroke:none"
       id="path3728"
       inkscape:connector-curvature="0" /><path
       d="m 3127.49,2820 c 0,259.12 143.27,469.16 320,469.16 8.14,0 16.2,-0.44 24.18,-1.32 l 0,-387.84 291.19,0 c 3.05,-26 4.63,-52.73 4.63,-80 0,-259.12 -143.26,-469.16 -320,-469.16 -176.73,0 -320,210.04 -320,469.16"
       style="fill:#231f20;fill-opacity:1;fill-rule:nonzero;stroke:none"
       id="path3732"
       inkscape:connector-curvature="0" /></g></g>
</g></g></svg>