<?xml version="1.0" encoding="UTF-8" standalone="no"?>
<!-- Created with Inkscape (http://www.inkscape.org/) -->

<svg
   xmlns:dc="http://purl.org/dc/elements/1.1/"
   xmlns:cc="http://creativecommons.org/ns#"
   xmlns:rdf="http://www.w3.org/1999/02/22-rdf-syntax-ns#"
   xmlns:svg="http://www.w3.org/2000/svg"
   xmlns="http://www.w3.org/2000/svg"
   xmlns:xlink="http://www.w3.org/1999/xlink"
   xmlns:sodipodi="http://sodipodi.sourceforge.net/DTD/sodipodi-0.dtd"
   xmlns:inkscape="http://www.inkscape.org/namespaces/inkscape"
   id="svg3378"
   version="1.1"
   inkscape:version="0.48.1 r9760"
   width="572.3125"
   height="343.5"
   xml:space="preserve"
   sodipodi:docname="luma-gray.svg"
   inkscape:export-filename="/mnt/debris/devel/git/luma/resources/icons/luma-gray.png"
   inkscape:export-xdpi="89.639999"
   inkscape:export-ydpi="89.639999"><metadata
     id="metadata3384"><rdf:RDF><cc:Work
         rdf:about=""><dc:format>image/svg+xml</dc:format><dc:type
           rdf:resource="http://purl.org/dc/dcmitype/StillImage" /><dc:title></dc:title></cc:Work></rdf:RDF></metadata><defs
     id="defs3382"><linearGradient
   id="linearGradient4105"><stop
     style="stop-color:#52a0dd;stop-opacity:1;"
     offset="0"
     id="stop4107" /><stop
     style="stop-color:#b7d4f1;stop-opacity:1;"
     offset="1"
     id="stop4109" /></linearGradient><clipPath
   clipPathUnits="userSpaceOnUse"
   id="clipPath3400"><path
     d="m 645.438,2255.42 c 0,1131.26 917.042,2048.31 2048.312,2048.31 1131.26,0 2048.3,-917.05 2048.3,-2048.31 0,-1131.27 -917.04,-2048.311 -2048.3,-2048.311 -1131.27,0 -2048.312,917.041 -2048.312,2048.311 z"
     id="path3402"
     inkscape:connector-curvature="0" /></clipPath><clipPath
   clipPathUnits="userSpaceOnUse"
   id="clipPath3624"><path
     d="M 889.426,1959.69 C 828.957,2547.5 1553.02,3107.02 2506.68,3209.41 3460.35,3311.8 4282.44,2918.3 4342.91,2330.48 4403.38,1742.67 3679.32,1183.16 2725.66,1080.76 1771.99,978.367 949.895,1371.87 889.426,1959.69 z"
     id="path3626"
     inkscape:connector-curvature="0" /></clipPath><linearGradient
   inkscape:collect="always"
   xlink:href="#linearGradient4105-5"
   id="linearGradient4111-1"
   x1="213.25031"
   y1="78.725807"
   x2="213.25031"
   y2="591.37933"
   gradientUnits="userSpaceOnUse"
   gradientTransform="matrix(0.98305085,0,0,0.98028169,-116.25908,-6.2218481)" /><linearGradient
   id="linearGradient4105-5"><stop
     style="stop-color:#52a0dd;stop-opacity:1;"
     offset="0"
     id="stop4107-8" /><stop
     style="stop-color:#b7d4f1;stop-opacity:1;"
     offset="1"
     id="stop4109-1" /></linearGradient><linearGradient
   inkscape:collect="always"
   xlink:href="#linearGradient4105"
   id="linearGradient4159"
   gradientUnits="userSpaceOnUse"
   gradientTransform="matrix(0.98305085,0,0,0.98028169,-116.25908,-6.2218481)"
   x1="213.25031"
   y1="78.725807"
   x2="213.25031"
   y2="591.37933" /><linearGradient
   inkscape:collect="always"
   xlink:href="#linearGradient4105"
   id="linearGradient4222"
   gradientUnits="userSpaceOnUse"
   gradientTransform="matrix(0.98305085,0,0,0.98028169,-116.25908,-6.2218481)"
   x1="213.25031"
   y1="78.725807"
   x2="213.25031"
   y2="591.37933" /><linearGradient
   inkscape:collect="always"
   xlink:href="#linearGradient4105"
   id="linearGradient4258"
   gradientUnits="userSpaceOnUse"
   gradientTransform="matrix(0.98305085,0,0,0.98028169,-116.25908,-6.2218481)"
   x1="213.25031"
   y1="78.725807"
   x2="213.25031"
   y2="591.37933" />
<linearGradient
   inkscape:collect="always"
   xlink:href="#linearGradient4105"
   id="linearGradient4278"
   gradientUnits="userSpaceOnUse"
   gradientTransform="matrix(0.98305085,0,0,0.98028169,-116.25908,-6.2218481)"
   x1="213.25031"
   y1="78.725807"
   x2="213.25031"
   y2="591.37933" /><linearGradient
   inkscape:collect="always"
   xlink:href="#linearGradient4105"
   id="linearGradient4297"
   gradientUnits="userSpaceOnUse"
   gradientTransform="matrix(0.98305085,0,0,0.98028169,-116.25908,-6.2218481)"
   x1="213.25031"
   y1="78.725807"
   x2="213.25031"
   y2="591.37933" /><linearGradient
   inkscape:collect="always"
   xlink:href="#linearGradient4105"
   id="linearGradient4315"
   gradientUnits="userSpaceOnUse"
   gradientTransform="translate(-4.801912e-6,-2.4523468e-6)"
   x1="213.25031"
   y1="78.725807"
   x2="213.25031"
   y2="591.37933" /><linearGradient
   inkscape:collect="always"
   xlink:href="#linearGradient4105"
   id="linearGradient4324"
   gradientUnits="userSpaceOnUse"
   gradientTransform="translate(-5.301912e-6,-4.9523469e-6)"
   x1="213.25031"
   y1="78.725807"
   x2="213.25031"
   y2="591.37933" /></defs><sodipodi:namedview
     pagecolor="#ffffff"
     bordercolor="#666666"
     borderopacity="1"
     objecttolerance="10"
     gridtolerance="10"
     guidetolerance="10"
     inkscape:pageopacity="0"
     inkscape:pageshadow="2"
     inkscape:window-width="1280"
     inkscape:window-height="728"
     id="namedview3380"
     showgrid="false"
     inkscape:zoom="0.90509668"
     inkscape:cx="389.49357"
     inkscape:cy="181.07734"
     inkscape:window-x="0"
     inkscape:window-y="25"
     inkscape:window-maximized="1"
     inkscape:current-layer="g3386"
     fit-margin-top="0"
     fit-margin-left="0"
     fit-margin-right="0"
     fit-margin-bottom="0" /><g
     id="g3386"
     inkscape:groupmode="layer"
     inkscape:label="ink_ext_XXXXXX"
     transform="matrix(1.25,0,0,-1.25,-42.992656,763.22169)"><path
       inkscape:connector-curvature="0"
       id="path3732"
       style="fill:#babdb6;fill-opacity:1;fill-rule:nonzero;stroke:none"
       d="m 346.42027,402.33418 c 0,25.912 14.327,46.916 32,46.916 0.814,0 1.62,-0.044 2.418,-0.132 l 0,-38.784 29.119,0 c 0.305,-2.6 0.463,-5.273 0.463,-8 0,-25.912 -14.326,-46.916 -32,-46.916 -17.673,0 -32,21.004 -32,46.916" /><path
       style="fill:#babdb6;fill-opacity:1;fill-rule:nonzero;stroke:none"
       d="m 242.53125,232.90625 c -22.09125,0 -40,26.26625 -40,58.65625 0,22.56322 8.69651,42.1299 21.4375,51.9375 l 37.125,0 c 12.74104,-9.8076 21.4375,-29.37428 21.4375,-51.9375 0,-3.40875 -0.18125,-6.75 -0.5625,-10 l -36.40625,0 0,-48.5 c -0.9975,-0.11 -2.01375,-0.15625 -3.03125,-0.15625 z"
       transform="matrix(0.8,0,0,-0.8,34.394125,610.57735)"
       id="path3728"
       inkscape:connector-curvature="0" /><path
       style="fill:#babdb6;fill-opacity:1;fill-rule:nonzero;stroke:none"
       d="m 484.96913,610.56677 c -7.92892,-0.19669 -15.07787,-2.85288 -20.35,-8.125 -12.657,-12.656 -10.149,-36.162 4.925,-55.175 l -46.175,-46.175 11.3,-11.325 46.15,46.15 c 3.66953,-2.9454 7.52332,-5.41354 11.425,-7.4 l 0,81.55 c -2.47259,0.37096 -4.91058,0.55865 -7.275,0.5 z"
       id="path3390"
       inkscape:connector-curvature="0" /><path
       inkscape:connector-curvature="0"
       id="path3392"
       style="fill:#babdb6;fill-opacity:1;fill-rule:nonzero;stroke:none"
       d="m 42.515024,494.73218 c -14.05898,14.059 -9.402734,41.509 10.40075,61.313 19.8035,19.803 47.253496,24.46 61.312496,10.401 12.7289,-12.729 10.116,-36.435 -5.1894,-55.504 l 46.1424,-46.143 -11.314,-11.313 -46.175296,46.175 c -19.0125,-15.074 -42.5207,-17.585 -55.17695,-4.929" /><g
       id="g3396"
       transform="matrix(0.1,0,0,0.1,33.671274,120.33418)"><g
         clip-path="url(#clipPath3400)"
         id="g3398" /></g><g
       id="g3620"
       transform="matrix(0.1,0,0,0.1,33.671274,120.33418)"><g
         clip-path="url(#clipPath3624)"
         id="g3622" /></g><path
       style="fill:#babdb6;fill-opacity:1;stroke:none"
       d="m 335.53125,74.5625 c -141.07412,0 -255.4375,114.68361 -255.4375,256.15625 0,4.27617 0.10638,8.55608 0.3125,12.78125 l 99.125,0 c -6.53559,-14.44738 -10.34375,-31.56788 -10.34375,-49.9375 0,-51.57625 29.835,-93.375 66.625,-93.375 36.79,0 66.625,41.79875 66.625,93.375 0,18.36962 -3.80816,35.49012 -10.34375,49.9375 l 98.5625,0 C 369.52428,327.84558 355.125,296.7109 355.125,260.875 c 0,-51.57625 29.835,-93.40625 66.625,-93.40625 36.79,0 66.625,41.83 66.625,93.40625 0,35.8359 -14.39928,66.97058 -35.53125,82.625 l 119.46875,0 0,-109.03125 C 534.37243,140.69255 442.65943,74.5625 335.53125,74.5625 z"
       transform="matrix(0.8,0,0,-0.8,34.394125,610.57735)"
       id="path4103"
       inkscape:connector-curvature="0" /><path
       style="fill:#babdb6;fill-opacity:1;fill-rule:nonzero;stroke:none"
       d="m 350.25,209.65625 c -12.55384,-0.0192 -25.39358,0.64684 -38.4375,2.0625 -12.7351,1.38215 -25.13564,3.41183 -37.125,6.03125 16.7962,16.95437 27.75,44.58104 27.75,75.8125 0,18.36962 -3.80816,35.49012 -10.34375,49.9375 l 98.5625,0 C 369.52428,327.84558 355.125,296.7109 355.125,260.875 c 0,-18.755 3.96181,-36.21236 10.75,-50.84375 -5.14839,-0.24776 -10.36491,-0.36694 -15.625,-0.375 z m 137.03125,34.625 c 0.6889,5.38534 1.09375,10.93048 1.09375,16.59375 0,35.8359 -14.39928,66.97058 -35.53125,82.625 l 88.71875,0 c 1.13331,-7.29594 1.33077,-14.70318 0.53125,-22.125 -3.33611,-30.96886 -23.58455,-57.60496 -54.8125,-77.09375 z M 173.75,259.65625 c -34.02714,23.2564 -56.72642,52.67573 -62.53125,83.84375 l 68.3125,0 c -6.53559,-14.44738 -10.34375,-31.56788 -10.34375,-49.9375 0,-11.96904 1.6359,-23.38959 4.5625,-33.90625 z"
       transform="matrix(0.8,0,0,-0.8,34.394125,610.57735)"
       id="path4147"
       inkscape:connector-curvature="0" /></g></svg>