<?xml version="1.0" encoding="UTF-8" standalone="no"?>
<!-- Created with Inkscape (http://www.inkscape.org/) -->

<svg
   xmlns:dc="http://purl.org/dc/elements/1.1/"
   xmlns:cc="http://creativecommons.org/ns#"
   xmlns:rdf="http://www.w3.org/1999/02/22-rdf-syntax-ns#"
   xmlns:svg="http://www.w3.org/2000/svg"
   xmlns="http://www.w3.org/2000/svg"
   xmlns:sodipodi="http://sodipodi.sourceforge.net/DTD/sodipodi-0.dtd"
   xmlns:inkscape="http://www.inkscape.org/namespaces/inkscape"
   id="svg3378"
   version="1.1"
   inkscape:version="0.48.1 r9760"
   width="637.56262"
   height="637.56"
   xml:space="preserve"
   sodipodi:docname="luma.svg"><metadata
     id="metadata3384"><rdf:RDF><cc:Work
         rdf:about=""><dc:format>image/svg+xml</dc:format><dc:type
           rdf:resource="http://purl.org/dc/dcmitype/StillImage" /><dc:title></dc:title></cc:Work></rdf:RDF></metadata><defs
     id="defs3382"><clipPath
       clipPathUnits="userSpaceOnUse"
       id="clipPath3400"><path
         d="m 645.438,2255.42 c 0,1131.26 917.042,2048.31 2048.312,2048.31 1131.26,0 2048.3,-917.05 2048.3,-2048.31 0,-1131.27 -917.04,-2048.311 -2048.3,-2048.311 -1131.27,0 -2048.312,917.041 -2048.312,2048.311 z"
         id="path3402"
         inkscape:connector-curvature="0" /></clipPath><clipPath
       clipPathUnits="userSpaceOnUse"
       id="clipPath3624"><path
         d="M 889.426,1959.69 C 828.957,2547.5 1553.02,3107.02 2506.68,3209.41 3460.35,3311.8 4282.44,2918.3 4342.91,2330.48 4403.38,1742.67 3679.32,1183.16 2725.66,1080.76 1771.99,978.367 949.895,1371.87 889.426,1959.69 z"
         id="path3626"
         inkscape:connector-curvature="0" /></clipPath></defs><sodipodi:namedview
     pagecolor="#ffffff"
     bordercolor="#666666"
     borderopacity="1"
     objecttolerance="10"
     gridtolerance="10"
     guidetolerance="10"
     inkscape:pageopacity="0"
     inkscape:pageshadow="2"
     inkscape:window-width="1280"
     inkscape:window-height="728"
     id="namedview3380"
     showgrid="false"
     inkscape:zoom="0.48997501"
     inkscape:cx="293.84829"
     inkscape:cy="305.53835"
     inkscape:window-x="0"
     inkscape:window-y="25"
     inkscape:window-maximized="1"
     inkscape:current-layer="g3386"
     fit-margin-top="0"
     fit-margin-left="0"
     fit-margin-right="0"
     fit-margin-bottom="0" /><g
     id="g3386"
     inkscape:groupmode="layer"
     inkscape:label="ink_ext_XXXXXX"
     transform="matrix(1.25,0,0,-1.25,-42.992668,775.64596)"><g
       id="g3912"
       transform="translate(-16.580822,-182.14979)"><g
   transform="translate(-9.7828887,0)"
   id="g3740"><g
     id="g3388"
     transform="matrix(0.1,0,0,0.1,60.034985,302.48397)"><path
       d="m 4309.39,4821.11 c 140.59,140.59 415.09,94.03 613.12,-104 198.04,-198.04 244.6,-472.54 104.01,-613.13 -127.29,-127.29 -364.35,-101.16 -555.04,51.9 l -461.42,-461.43 -113.14,113.14 461.75,461.75 c -150.74,190.13 -175.85,425.21 -49.28,551.77"
       style="fill:#306ebd;fill-opacity:1;fill-rule:nonzero;stroke:none"
       id="path3390"
       inkscape:connector-curvature="0" /><path
       d="m 88.4375,3743.98 c -140.5898,140.59 -94.02734,415.09 104.0075,613.13 198.035,198.03 472.535,244.6 613.125,104.01 127.289,-127.29 101.16,-364.35 -51.894,-555.04 L 1215.1,3444.65 1101.96,3331.52 640.207,3793.27 C 450.082,3642.53 215,3617.42 88.4375,3743.98"
       style="fill:#306ebd;fill-opacity:1;fill-rule:nonzero;stroke:none"
       id="path3392"
       inkscape:connector-curvature="0" /><path
       d="m 457.699,2242.98 c 0,1238.31 1003.821,2242.14 2242.131,2242.14 1238.31,0 2242.13,-1003.83 2242.13,-2242.14 C 4941.96,1004.67 3938.14,0.851562 2699.83,0.851562 1461.52,0.851562 457.699,1004.67 457.699,2242.98"
       style="fill:#306ebd;fill-opacity:1;fill-rule:nonzero;stroke:none"
       id="path3394"
       inkscape:connector-curvature="0" /><g
       id="g3396"><g
         id="g3398"
         clip-path="url(#clipPath3400)"><path
           d="m 645.402,4265.77 4097,0 0,38 -4097,0 0,-38 z"
           style="fill:#52a0dd;fill-opacity:1;fill-rule:nonzero;stroke:none"
           id="path3404"
           inkscape:connector-curvature="0" /><path
           d="m 645.402,4227.84 4097,0 0,38 -4097,0 0,-38 z"
           style="fill:#53a1dd;fill-opacity:1;fill-rule:nonzero;stroke:none"
           id="path3406"
           inkscape:connector-curvature="0" /><path
           d="m 645.402,4189.91 4097,0 0,37.9961 -4097,0 0,-37.9961 z"
           style="fill:#54a1dd;fill-opacity:1;fill-rule:nonzero;stroke:none"
           id="path3408"
           inkscape:connector-curvature="0" /><path
           d="m 645.402,4151.97 4097,0 0,38 -4097,0 0,-38 z"
           style="fill:#54a2de;fill-opacity:1;fill-rule:nonzero;stroke:none"
           id="path3410"
           inkscape:connector-curvature="0" /><path
           d="m 645.402,4114.04 4097,0 0,37.9961 -4097,0 0,-37.9961 z"
           style="fill:#55a2de;fill-opacity:1;fill-rule:nonzero;stroke:none"
           id="path3412"
           inkscape:connector-curvature="0" /><path
           d="m 645.402,4076.11 4097,0 0,38 -4097,0 0,-38 z"
           style="fill:#56a2de;fill-opacity:1;fill-rule:nonzero;stroke:none"
           id="path3414"
           inkscape:connector-curvature="0" /><path
           d="m 645.402,4038.18 4097,0 0,38 -4097,0 0,-38 z"
           style="fill:#57a3de;fill-opacity:1;fill-rule:nonzero;stroke:none"
           id="path3416"
           inkscape:connector-curvature="0" /><path
           d="m 645.402,4000.25 4097,0 0,37.9961 -4097,0 0,-37.9961 z"
           style="fill:#58a3de;fill-opacity:1;fill-rule:nonzero;stroke:none"
           id="path3418"
           inkscape:connector-curvature="0" /><path
           d="m 645.402,3962.31 4097,0 0,38 -4097,0 0,-38 z"
           style="fill:#59a4de;fill-opacity:1;fill-rule:nonzero;stroke:none"
           id="path3420"
           inkscape:connector-curvature="0" /><path
           d="m 645.402,3924.38 4097,0 0,38 -4097,0 0,-38 z"
           style="fill:#5aa4df;fill-opacity:1;fill-rule:nonzero;stroke:none"
           id="path3422"
           inkscape:connector-curvature="0" /><path
           d="m 645.402,3886.45 4097,0 0,37.9961 -4097,0 0,-37.9961 z"
           style="fill:#5ba4df;fill-opacity:1;fill-rule:nonzero;stroke:none"
           id="path3424"
           inkscape:connector-curvature="0" /><path
           d="m 645.402,3848.52 4097,0 0,38 -4097,0 0,-38 z"
           style="fill:#5ca5df;fill-opacity:1;fill-rule:nonzero;stroke:none"
           id="path3426"
           inkscape:connector-curvature="0" /><path
           d="m 645.402,3810.59 4097,0 0,37.9961 -4097,0 0,-37.9961 z"
           style="fill:#5da5df;fill-opacity:1;fill-rule:nonzero;stroke:none"
           id="path3428"
           inkscape:connector-curvature="0" /><path
           d="m 645.402,3772.65 4097,0 0,38 -4097,0 0,-38 z"
           style="fill:#5ea6df;fill-opacity:1;fill-rule:nonzero;stroke:none"
           id="path3430"
           inkscape:connector-curvature="0" /><path
           d="m 645.402,3734.72 4097,0 0,38 -4097,0 0,-38 z"
           style="fill:#5fa6df;fill-opacity:1;fill-rule:nonzero;stroke:none"
           id="path3432"
           inkscape:connector-curvature="0" /><path
           d="m 645.402,3696.79 4097,0 0,37.9961 -4097,0 0,-37.9961 z"
           style="fill:#5fa7e0;fill-opacity:1;fill-rule:nonzero;stroke:none"
           id="path3434"
           inkscape:connector-curvature="0" /><path
           d="m 645.402,3658.86 4097,0 0,38 -4097,0 0,-38 z"
           style="fill:#60a7e0;fill-opacity:1;fill-rule:nonzero;stroke:none"
           id="path3436"
           inkscape:connector-curvature="0" /><path
           d="m 645.402,3620.92 4097,0 0,38 -4097,0 0,-38 z"
           style="fill:#61a7e0;fill-opacity:1;fill-rule:nonzero;stroke:none"
           id="path3438"
           inkscape:connector-curvature="0" /><path
           d="m 645.402,3582.99 4097,0 0,37.9961 -4097,0 0,-37.9961 z"
           style="fill:#62a8e0;fill-opacity:1;fill-rule:nonzero;stroke:none"
           id="path3440"
           inkscape:connector-curvature="0" /><path
           d="m 645.402,3545.06 4097,0 0,38 -4097,0 0,-38 z"
           style="fill:#63a8e0;fill-opacity:1;fill-rule:nonzero;stroke:none"
           id="path3442"
           inkscape:connector-curvature="0" /><path
           d="m 645.402,3507.13 4097,0 0,37.9961 -4097,0 0,-37.9961 z"
           style="fill:#64a9e0;fill-opacity:1;fill-rule:nonzero;stroke:none"
           id="path3444"
           inkscape:connector-curvature="0" /><path
           d="m 645.402,3469.2 4097,0 0,38 -4097,0 0,-38 z"
           style="fill:#65a9e1;fill-opacity:1;fill-rule:nonzero;stroke:none"
           id="path3446"
           inkscape:connector-curvature="0" /><path
           d="m 645.402,3431.26 4097,0 0,38 -4097,0 0,-38 z"
           style="fill:#66aae1;fill-opacity:1;fill-rule:nonzero;stroke:none"
           id="path3448"
           inkscape:connector-curvature="0" /><path
           d="m 645.402,3393.33 4097,0 0,37.9961 -4097,0 0,-37.9961 z"
           style="fill:#67aae1;fill-opacity:1;fill-rule:nonzero;stroke:none"
           id="path3450"
           inkscape:connector-curvature="0" /><path
           d="m 645.402,3355.4 4097,0 0,38 -4097,0 0,-38 z"
           style="fill:#68abe1;fill-opacity:1;fill-rule:nonzero;stroke:none"
           id="path3452"
           inkscape:connector-curvature="0" /><path
           d="m 645.402,3317.46 4097,0 0,38 -4097,0 0,-38 z"
           style="fill:#69abe1;fill-opacity:1;fill-rule:nonzero;stroke:none"
           id="path3454"
           inkscape:connector-curvature="0" /><path
           d="m 645.402,3279.54 4097,0 0,37.9961 -4097,0 0,-37.9961 z"
           style="fill:#6aace2;fill-opacity:1;fill-rule:nonzero;stroke:none"
           id="path3456"
           inkscape:connector-curvature="0" /><path
           d="m 645.402,3241.6 4097,0 0,38 -4097,0 0,-38 z"
           style="fill:#6bace2;fill-opacity:1;fill-rule:nonzero;stroke:none"
           id="path3458"
           inkscape:connector-curvature="0" /><path
           d="m 645.402,3203.67 4097,0 0,37.9961 -4097,0 0,-37.9961 z"
           style="fill:#6cace2;fill-opacity:1;fill-rule:nonzero;stroke:none"
           id="path3460"
           inkscape:connector-curvature="0" /><path
           d="m 645.402,3165.74 4097,0 0,38 -4097,0 0,-38 z"
           style="fill:#6dade2;fill-opacity:1;fill-rule:nonzero;stroke:none"
           id="path3462"
           inkscape:connector-curvature="0" /><path
           d="m 645.402,3127.8 4097,0 0,38 -4097,0 0,-38 z"
           style="fill:#6eade2;fill-opacity:1;fill-rule:nonzero;stroke:none"
           id="path3464"
           inkscape:connector-curvature="0" /><path
           d="m 645.402,3089.88 4097,0 0,37.9961 -4097,0 0,-37.9961 z"
           style="fill:#6faee2;fill-opacity:1;fill-rule:nonzero;stroke:none"
           id="path3466"
           inkscape:connector-curvature="0" /><path
           d="m 645.402,3051.94 4097,0 0,38 -4097,0 0,-38 z"
           style="fill:#70aee3;fill-opacity:1;fill-rule:nonzero;stroke:none"
           id="path3468"
           inkscape:connector-curvature="0" /><path
           d="m 645.402,3014.01 4097,0 0,38 -4097,0 0,-38 z"
           style="fill:#70afe3;fill-opacity:1;fill-rule:nonzero;stroke:none"
           id="path3470"
           inkscape:connector-curvature="0" /><path
           d="m 645.402,2976.08 4097,0 0,37.9961 -4097,0 0,-37.9961 z"
           style="fill:#71afe3;fill-opacity:1;fill-rule:nonzero;stroke:none"
           id="path3472"
           inkscape:connector-curvature="0" /><path
           d="m 645.402,2938.14 4097,0 0,38 -4097,0 0,-38 z"
           style="fill:#72b0e3;fill-opacity:1;fill-rule:nonzero;stroke:none"
           id="path3474"
           inkscape:connector-curvature="0" /><path
           d="m 645.402,2900.21 4097,0 0,37.9961 -4097,0 0,-37.9961 z"
           style="fill:#73b0e3;fill-opacity:1;fill-rule:nonzero;stroke:none"
           id="path3476"
           inkscape:connector-curvature="0" /><path
           d="m 645.402,2862.28 4097,0 0,38 -4097,0 0,-38 z"
           style="fill:#74b1e3;fill-opacity:1;fill-rule:nonzero;stroke:none"
           id="path3478"
           inkscape:connector-curvature="0" /><path
           d="m 645.402,2824.35 4097,0 0,38 -4097,0 0,-38 z"
           style="fill:#75b1e4;fill-opacity:1;fill-rule:nonzero;stroke:none"
           id="path3480"
           inkscape:connector-curvature="0" /><path
           d="m 645.402,2786.42 4097,0 0,37.9961 -4097,0 0,-37.9961 z"
           style="fill:#76b1e4;fill-opacity:1;fill-rule:nonzero;stroke:none"
           id="path3482"
           inkscape:connector-curvature="0" /><path
           d="m 645.402,2748.48 4097,0 0,38 -4097,0 0,-38 z"
           style="fill:#77b2e4;fill-opacity:1;fill-rule:nonzero;stroke:none"
           id="path3484"
           inkscape:connector-curvature="0" /><path
           d="m 645.402,2710.55 4097,0 0,38 -4097,0 0,-38 z"
           style="fill:#78b2e4;fill-opacity:1;fill-rule:nonzero;stroke:none"
           id="path3486"
           inkscape:connector-curvature="0" /><path
           d="m 645.402,2672.62 4097,0 0,37.9961 -4097,0 0,-37.9961 z"
           style="fill:#79b3e4;fill-opacity:1;fill-rule:nonzero;stroke:none"
           id="path3488"
           inkscape:connector-curvature="0" /><path
           d="m 645.402,2634.69 4097,0 0,38 -4097,0 0,-38 z"
           style="fill:#7ab3e5;fill-opacity:1;fill-rule:nonzero;stroke:none"
           id="path3490"
           inkscape:connector-curvature="0" /><path
           d="m 645.402,2596.76 4097,0 0,37.9961 -4097,0 0,-37.9961 z"
           style="fill:#7bb4e5;fill-opacity:1;fill-rule:nonzero;stroke:none"
           id="path3492"
           inkscape:connector-curvature="0" /><path
           d="m 645.402,2558.82 4097,0 0,38 -4097,0 0,-38 z"
           style="fill:#7cb4e5;fill-opacity:1;fill-rule:nonzero;stroke:none"
           id="path3494"
           inkscape:connector-curvature="0" /><path
           d="m 645.402,2520.89 4097,0 0,38 -4097,0 0,-38 z"
           style="fill:#7db5e5;fill-opacity:1;fill-rule:nonzero;stroke:none"
           id="path3496"
           inkscape:connector-curvature="0" /><path
           d="m 645.402,2482.96 4097,0 0,37.9961 -4097,0 0,-37.9961 z"
           style="fill:#7db5e5;fill-opacity:1;fill-rule:nonzero;stroke:none"
           id="path3498"
           inkscape:connector-curvature="0" /><path
           d="m 645.402,2445.03 4097,0 0,38 -4097,0 0,-38 z"
           style="fill:#7eb6e5;fill-opacity:1;fill-rule:nonzero;stroke:none"
           id="path3500"
           inkscape:connector-curvature="0" /><path
           d="m 645.402,2407.09 4097,0 0,38 -4097,0 0,-38 z"
           style="fill:#7fb6e6;fill-opacity:1;fill-rule:nonzero;stroke:none"
           id="path3502"
           inkscape:connector-curvature="0" /><path
           d="m 645.402,2369.16 4097,0 0,37.9961 -4097,0 0,-37.9961 z"
           style="fill:#80b7e6;fill-opacity:1;fill-rule:nonzero;stroke:none"
           id="path3504"
           inkscape:connector-curvature="0" /><path
           d="m 645.402,2331.23 4097,0 0,38 -4097,0 0,-38 z"
           style="fill:#81b7e6;fill-opacity:1;fill-rule:nonzero;stroke:none"
           id="path3506"
           inkscape:connector-curvature="0" /><path
           d="m 645.402,2293.3 4097,0 0,37.9961 -4097,0 0,-37.9961 z"
           style="fill:#82b8e6;fill-opacity:1;fill-rule:nonzero;stroke:none"
           id="path3508"
           inkscape:connector-curvature="0" /><path
           d="m 645.402,2255.37 4097,0 0,38 -4097,0 0,-38 z"
           style="fill:#83b8e6;fill-opacity:1;fill-rule:nonzero;stroke:none"
           id="path3510"
           inkscape:connector-curvature="0" /><path
           d="m 645.402,2217.44 4097,0 0,37.9961 -4097,0 0,-37.9961 z"
           style="fill:#84b9e7;fill-opacity:1;fill-rule:nonzero;stroke:none"
           id="path3512"
           inkscape:connector-curvature="0" /><path
           d="m 645.402,2179.5 4097,0 0,38 -4097,0 0,-38 z"
           style="fill:#85b9e7;fill-opacity:1;fill-rule:nonzero;stroke:none"
           id="path3514"
           inkscape:connector-curvature="0" /><path
           d="m 645.402,2141.57 4097,0 0,38 -4097,0 0,-38 z"
           style="fill:#86bae7;fill-opacity:1;fill-rule:nonzero;stroke:none"
           id="path3516"
           inkscape:connector-curvature="0" /><path
           d="m 645.402,2103.64 4097,0 0,37.9961 -4097,0 0,-37.9961 z"
           style="fill:#87bae7;fill-opacity:1;fill-rule:nonzero;stroke:none"
           id="path3518"
           inkscape:connector-curvature="0" /><path
           d="m 645.402,2065.71 4097,0 0,38 -4097,0 0,-38 z"
           style="fill:#88bae7;fill-opacity:1;fill-rule:nonzero;stroke:none"
           id="path3520"
           inkscape:connector-curvature="0" /><path
           d="m 645.402,2027.78 4097,0 0,38 -4097,0 0,-38 z"
           style="fill:#89bbe7;fill-opacity:1;fill-rule:nonzero;stroke:none"
           id="path3522"
           inkscape:connector-curvature="0" /><path
           d="m 645.402,1989.85 4097,0 0,37.9961 -4097,0 0,-37.9961 z"
           style="fill:#8abbe8;fill-opacity:1;fill-rule:nonzero;stroke:none"
           id="path3524"
           inkscape:connector-curvature="0" /><path
           d="m 645.402,1951.92 4097,0 0,38 -4097,0 0,-38 z"
           style="fill:#8bbce8;fill-opacity:1;fill-rule:nonzero;stroke:none"
           id="path3526"
           inkscape:connector-curvature="0" /><path
           d="m 645.402,1913.99 4097,0 0,38 -4097,0 0,-38 z"
           style="fill:#8cbce8;fill-opacity:1;fill-rule:nonzero;stroke:none"
           id="path3528"
           inkscape:connector-curvature="0" /><path
           d="m 645.402,1876.06 4097,0 0,37.9961 -4097,0 0,-37.9961 z"
           style="fill:#8dbde8;fill-opacity:1;fill-rule:nonzero;stroke:none"
           id="path3530"
           inkscape:connector-curvature="0" /><path
           d="m 645.402,1838.13 4097,0 0,37.9961 -4097,0 0,-37.9961 z"
           style="fill:#8ebde8;fill-opacity:1;fill-rule:nonzero;stroke:none"
           id="path3532"
           inkscape:connector-curvature="0" /><path
           d="m 645.402,1800.2 4097,0 0,38 -4097,0 0,-38 z"
           style="fill:#8fbee9;fill-opacity:1;fill-rule:nonzero;stroke:none"
           id="path3534"
           inkscape:connector-curvature="0" /><path
           d="m 645.402,1762.27 4097,0 0,37.9961 -4097,0 0,-37.9961 z"
           style="fill:#8fbee9;fill-opacity:1;fill-rule:nonzero;stroke:none"
           id="path3536"
           inkscape:connector-curvature="0" /><path
           d="m 645.402,1724.34 4097,0 0,37.9961 -4097,0 0,-37.9961 z"
           style="fill:#90bfe9;fill-opacity:1;fill-rule:nonzero;stroke:none"
           id="path3538"
           inkscape:connector-curvature="0" /><path
           d="m 645.402,1686.4 4097,0 0,38 -4097,0 0,-38 z"
           style="fill:#91bfe9;fill-opacity:1;fill-rule:nonzero;stroke:none"
           id="path3540"
           inkscape:connector-curvature="0" /><path
           d="m 645.402,1648.47 4097,0 0,38 -4097,0 0,-38 z"
           style="fill:#92c0e9;fill-opacity:1;fill-rule:nonzero;stroke:none"
           id="path3542"
           inkscape:connector-curvature="0" /><path
           d="m 645.402,1610.54 4097,0 0,37.9961 -4097,0 0,-37.9961 z"
           style="fill:#93c0ea;fill-opacity:1;fill-rule:nonzero;stroke:none"
           id="path3544"
           inkscape:connector-curvature="0" /><path
           d="m 645.402,1572.61 4097,0 0,38 -4097,0 0,-38 z"
           style="fill:#94c1ea;fill-opacity:1;fill-rule:nonzero;stroke:none"
           id="path3546"
           inkscape:connector-curvature="0" /><path
           d="m 645.402,1534.68 4097,0 0,38 -4097,0 0,-38 z"
           style="fill:#95c1ea;fill-opacity:1;fill-rule:nonzero;stroke:none"
           id="path3548"
           inkscape:connector-curvature="0" /><path
           d="m 645.402,1496.75 4097,0 0,37.9961 -4097,0 0,-37.9961 z"
           style="fill:#96c2ea;fill-opacity:1;fill-rule:nonzero;stroke:none"
           id="path3550"
           inkscape:connector-curvature="0" /><path
           d="m 645.402,1458.82 4097,0 0,38 -4097,0 0,-38 z"
           style="fill:#97c3ea;fill-opacity:1;fill-rule:nonzero;stroke:none"
           id="path3552"
           inkscape:connector-curvature="0" /><path
           d="m 645.402,1420.89 4097,0 0,38 -4097,0 0,-38 z"
           style="fill:#98c3ea;fill-opacity:1;fill-rule:nonzero;stroke:none"
           id="path3554"
           inkscape:connector-curvature="0" /><path
           d="m 645.402,1382.96 4097,0 0,37.9961 -4097,0 0,-37.9961 z"
           style="fill:#99c4eb;fill-opacity:1;fill-rule:nonzero;stroke:none"
           id="path3556"
           inkscape:connector-curvature="0" /><path
           d="m 645.402,1345.02 4097,0 0,38 -4097,0 0,-38 z"
           style="fill:#9ac4eb;fill-opacity:1;fill-rule:nonzero;stroke:none"
           id="path3558"
           inkscape:connector-curvature="0" /><path
           d="m 645.402,1307.09 4097,0 0,38 -4097,0 0,-38 z"
           style="fill:#9bc5eb;fill-opacity:1;fill-rule:nonzero;stroke:none"
           id="path3560"
           inkscape:connector-curvature="0" /><path
           d="m 645.402,1269.16 4097,0 0,37.9961 -4097,0 0,-37.9961 z"
           style="fill:#9cc5eb;fill-opacity:1;fill-rule:nonzero;stroke:none"
           id="path3562"
           inkscape:connector-curvature="0" /><path
           d="m 645.402,1231.23 4097,0 0,37.9961 -4097,0 0,-37.9961 z"
           style="fill:#9dc6eb;fill-opacity:1;fill-rule:nonzero;stroke:none"
           id="path3564"
           inkscape:connector-curvature="0" /><path
           d="m 645.402,1193.3 4097,0 0,38 -4097,0 0,-38 z"
           style="fill:#9ec6ec;fill-opacity:1;fill-rule:nonzero;stroke:none"
           id="path3566"
           inkscape:connector-curvature="0" /><path
           d="m 645.402,1155.37 4097,0 0,37.9961 -4097,0 0,-37.9961 z"
           style="fill:#9fc7ec;fill-opacity:1;fill-rule:nonzero;stroke:none"
           id="path3568"
           inkscape:connector-curvature="0" /><path
           d="m 645.402,1117.44 4097,0 0,37.9961 -4097,0 0,-37.9961 z"
           style="fill:#a0c7ec;fill-opacity:1;fill-rule:nonzero;stroke:none"
           id="path3570"
           inkscape:connector-curvature="0" /><path
           d="m 645.402,1079.51 4097,0 0,38 -4097,0 0,-38 z"
           style="fill:#a1c8ec;fill-opacity:1;fill-rule:nonzero;stroke:none"
           id="path3572"
           inkscape:connector-curvature="0" /><path
           d="m 645.402,1041.58 4097,0 0,38 -4097,0 0,-38 z"
           style="fill:#a2c8ec;fill-opacity:1;fill-rule:nonzero;stroke:none"
           id="path3574"
           inkscape:connector-curvature="0" /><path
           d="m 645.402,1003.65 4097,0 0,37.9961 -4097,0 0,-37.9961 z"
           style="fill:#a3c9ed;fill-opacity:1;fill-rule:nonzero;stroke:none"
           id="path3576"
           inkscape:connector-curvature="0" /><path
           d="m 645.402,965.715 4097,0 0,38 -4097,0 0,-38 z"
           style="fill:#a4c9ed;fill-opacity:1;fill-rule:nonzero;stroke:none"
           id="path3578"
           inkscape:connector-curvature="0" /><path
           d="m 645.402,927.785 4097,0 0,38 -4097,0 0,-38 z"
           style="fill:#a5caed;fill-opacity:1;fill-rule:nonzero;stroke:none"
           id="path3580"
           inkscape:connector-curvature="0" /><path
           d="m 645.402,889.855 4097,0 0,37.9961 -4097,0 0,-37.9961 z"
           style="fill:#a6caed;fill-opacity:1;fill-rule:nonzero;stroke:none"
           id="path3582"
           inkscape:connector-curvature="0" /><path
           d="m 645.402,851.922 4097,0 0,38 -4097,0 0,-38 z"
           style="fill:#a7cbed;fill-opacity:1;fill-rule:nonzero;stroke:none"
           id="path3584"
           inkscape:connector-curvature="0" /><path
           d="m 645.402,813.992 4097,0 0,38 -4097,0 0,-38 z"
           style="fill:#a8cbed;fill-opacity:1;fill-rule:nonzero;stroke:none"
           id="path3586"
           inkscape:connector-curvature="0" /><path
           d="m 645.402,776.062 4097,0 0,37.9961 -4097,0 0,-37.9961 z"
           style="fill:#a9ccee;fill-opacity:1;fill-rule:nonzero;stroke:none"
           id="path3588"
           inkscape:connector-curvature="0" /><path
           d="m 645.402,738.129 4097,0 0,38 -4097,0 0,-38 z"
           style="fill:#aaccee;fill-opacity:1;fill-rule:nonzero;stroke:none"
           id="path3590"
           inkscape:connector-curvature="0" /><path
           d="m 645.402,700.199 4097,0 0,38 -4097,0 0,-38 z"
           style="fill:#aacdee;fill-opacity:1;fill-rule:nonzero;stroke:none"
           id="path3592"
           inkscape:connector-curvature="0" /><path
           d="m 645.402,662.27 4097,0 0,37.9961 -4097,0 0,-37.9961 z"
           style="fill:#abceee;fill-opacity:1;fill-rule:nonzero;stroke:none"
           id="path3594"
           inkscape:connector-curvature="0" /><path
           d="m 645.402,624.34 4097,0 0,37.9961 -4097,0 0,-37.9961 z"
           style="fill:#acceee;fill-opacity:1;fill-rule:nonzero;stroke:none"
           id="path3596"
           inkscape:connector-curvature="0" /><path
           d="m 645.402,586.406 4097,0 0,38 -4097,0 0,-38 z"
           style="fill:#adcfef;fill-opacity:1;fill-rule:nonzero;stroke:none"
           id="path3598"
           inkscape:connector-curvature="0" /><path
           d="m 645.402,548.477 4097,0 0,37.9961 -4097,0 0,-37.9961 z"
           style="fill:#aecfef;fill-opacity:1;fill-rule:nonzero;stroke:none"
           id="path3600"
           inkscape:connector-curvature="0" /><path
           d="m 645.402,510.547 4097,0 0,37.9961 -4097,0 0,-37.9961 z"
           style="fill:#afd0ef;fill-opacity:1;fill-rule:nonzero;stroke:none"
           id="path3602"
           inkscape:connector-curvature="0" /><path
           d="m 645.402,472.613 4097,0 0,38 -4097,0 0,-38 z"
           style="fill:#b0d0ef;fill-opacity:1;fill-rule:nonzero;stroke:none"
           id="path3604"
           inkscape:connector-curvature="0" /><path
           d="m 645.402,434.684 4097,0 0,38 -4097,0 0,-38 z"
           style="fill:#b1d1ef;fill-opacity:1;fill-rule:nonzero;stroke:none"
           id="path3606"
           inkscape:connector-curvature="0" /><path
           d="m 645.402,396.754 4097,0 0,37.9961 -4097,0 0,-37.9961 z"
           style="fill:#b2d1f0;fill-opacity:1;fill-rule:nonzero;stroke:none"
           id="path3608"
           inkscape:connector-curvature="0" /><path
           d="m 645.402,358.82 4097,0 0,38 -4097,0 0,-38 z"
           style="fill:#b3d2f0;fill-opacity:1;fill-rule:nonzero;stroke:none"
           id="path3610"
           inkscape:connector-curvature="0" /><path
           d="m 645.402,320.891 4097,0 0,38 -4097,0 0,-38 z"
           style="fill:#b4d2f0;fill-opacity:1;fill-rule:nonzero;stroke:none"
           id="path3612"
           inkscape:connector-curvature="0" /><path
           d="m 645.402,282.961 4097,0 0,37.9961 -4097,0 0,-37.9961 z"
           style="fill:#b5d3f0;fill-opacity:1;fill-rule:nonzero;stroke:none"
           id="path3614"
           inkscape:connector-curvature="0" /><path
           d="m 645.402,245.027 4097,0 0,38 -4097,0 0,-38 z"
           style="fill:#b6d4f0;fill-opacity:1;fill-rule:nonzero;stroke:none"
           id="path3616"
           inkscape:connector-curvature="0" /><path
           d="m 645.402,207.098 4097,0 0,38 -4097,0 0,-38 z"
           style="fill:#b7d4f1;fill-opacity:1;fill-rule:nonzero;stroke:none"
           id="path3618"
           inkscape:connector-curvature="0" /></g></g><g
       id="g3620"><g
         id="g3622"
         clip-path="url(#clipPath3624)"><path
           d="m 885.902,3178.62 3460,0 0,46.9961 -3460,0 0,-46.9961 z"
           style="fill:#306ebd;fill-opacity:1;fill-rule:nonzero;stroke:none"
           id="path3628"
           inkscape:connector-curvature="0" /><path
           d="m 885.902,3131.64 3460,0 0,47 -3460,0 0,-47 z"
           style="fill:#316fbd;fill-opacity:1;fill-rule:nonzero;stroke:none"
           id="path3630"
           inkscape:connector-curvature="0" /><path
           d="m 885.902,3084.67 3460,0 0,47 -3460,0 0,-47 z"
           style="fill:#326fbd;fill-opacity:1;fill-rule:nonzero;stroke:none"
           id="path3632"
           inkscape:connector-curvature="0" /><path
           d="m 885.902,3037.69 3460,0 0,47 -3460,0 0,-47 z"
           style="fill:#326fbe;fill-opacity:1;fill-rule:nonzero;stroke:none"
           id="path3634"
           inkscape:connector-curvature="0" /><path
           d="m 885.902,2990.71 3460,0 0,46.9961 -3460,0 0,-46.9961 z"
           style="fill:#3370be;fill-opacity:1;fill-rule:nonzero;stroke:none"
           id="path3636"
           inkscape:connector-curvature="0" /><path
           d="m 885.902,2943.73 3460,0 0,47 -3460,0 0,-47 z"
           style="fill:#3470be;fill-opacity:1;fill-rule:nonzero;stroke:none"
           id="path3638"
           inkscape:connector-curvature="0" /><path
           d="m 885.902,2896.76 3460,0 0,47 -3460,0 0,-47 z"
           style="fill:#3570be;fill-opacity:1;fill-rule:nonzero;stroke:none"
           id="path3640"
           inkscape:connector-curvature="0" /><path
           d="m 885.902,2849.78 3460,0 0,47 -3460,0 0,-47 z"
           style="fill:#3571bf;fill-opacity:1;fill-rule:nonzero;stroke:none"
           id="path3642"
           inkscape:connector-curvature="0" /><path
           d="m 885.902,2802.8 3460,0 0,46.9961 -3460,0 0,-46.9961 z"
           style="fill:#3671bf;fill-opacity:1;fill-rule:nonzero;stroke:none"
           id="path3644"
           inkscape:connector-curvature="0" /><path
           d="m 885.902,2755.82 3460,0 0,47 -3460,0 0,-47 z"
           style="fill:#3772bf;fill-opacity:1;fill-rule:nonzero;stroke:none"
           id="path3646"
           inkscape:connector-curvature="0" /><path
           d="m 885.902,2708.85 3460,0 0,47 -3460,0 0,-47 z"
           style="fill:#3872bf;fill-opacity:1;fill-rule:nonzero;stroke:none"
           id="path3648"
           inkscape:connector-curvature="0" /><path
           d="m 885.902,2661.87 3460,0 0,47 -3460,0 0,-47 z"
           style="fill:#3972c0;fill-opacity:1;fill-rule:nonzero;stroke:none"
           id="path3650"
           inkscape:connector-curvature="0" /><path
           d="m 885.902,2614.89 3460,0 0,46.9961 -3460,0 0,-46.9961 z"
           style="fill:#3973c0;fill-opacity:1;fill-rule:nonzero;stroke:none"
           id="path3652"
           inkscape:connector-curvature="0" /><path
           d="m 885.902,2567.91 3460,0 0,47 -3460,0 0,-47 z"
           style="fill:#3a73c0;fill-opacity:1;fill-rule:nonzero;stroke:none"
           id="path3654"
           inkscape:connector-curvature="0" /><path
           d="m 885.902,2520.94 3460,0 0,47 -3460,0 0,-47 z"
           style="fill:#3b74c0;fill-opacity:1;fill-rule:nonzero;stroke:none"
           id="path3656"
           inkscape:connector-curvature="0" /><path
           d="m 885.902,2473.96 3460,0 0,47 -3460,0 0,-47 z"
           style="fill:#3c74c1;fill-opacity:1;fill-rule:nonzero;stroke:none"
           id="path3658"
           inkscape:connector-curvature="0" /><path
           d="m 885.902,2426.98 3460,0 0,46.9961 -3460,0 0,-46.9961 z"
           style="fill:#3d74c1;fill-opacity:1;fill-rule:nonzero;stroke:none"
           id="path3660"
           inkscape:connector-curvature="0" /><path
           d="m 885.902,2380 3460,0 0,47 -3460,0 0,-47 z"
           style="fill:#3d75c1;fill-opacity:1;fill-rule:nonzero;stroke:none"
           id="path3662"
           inkscape:connector-curvature="0" /><path
           d="m 885.902,2333.03 3460,0 0,47 -3460,0 0,-47 z"
           style="fill:#3e75c1;fill-opacity:1;fill-rule:nonzero;stroke:none"
           id="path3664"
           inkscape:connector-curvature="0" /><path
           d="m 885.902,2286.05 3460,0 0,47 -3460,0 0,-47 z"
           style="fill:#3f76c2;fill-opacity:1;fill-rule:nonzero;stroke:none"
           id="path3666"
           inkscape:connector-curvature="0" /><path
           d="m 885.902,2239.07 3460,0 0,47 -3460,0 0,-47 z"
           style="fill:#4076c2;fill-opacity:1;fill-rule:nonzero;stroke:none"
           id="path3668"
           inkscape:connector-curvature="0" /><path
           d="m 885.902,2192.09 3460,0 0,46.9961 -3460,0 0,-46.9961 z"
           style="fill:#4177c2;fill-opacity:1;fill-rule:nonzero;stroke:none"
           id="path3670"
           inkscape:connector-curvature="0" /><path
           d="m 885.902,2145.11 3460,0 0,47 -3460,0 0,-47 z"
           style="fill:#4177c2;fill-opacity:1;fill-rule:nonzero;stroke:none"
           id="path3672"
           inkscape:connector-curvature="0" /><path
           d="m 885.902,2098.14 3460,0 0,46.9961 -3460,0 0,-46.9961 z"
           style="fill:#4277c3;fill-opacity:1;fill-rule:nonzero;stroke:none"
           id="path3674"
           inkscape:connector-curvature="0" /><path
           d="m 885.902,2051.16 3460,0 0,47 -3460,0 0,-47 z"
           style="fill:#4378c3;fill-opacity:1;fill-rule:nonzero;stroke:none"
           id="path3676"
           inkscape:connector-curvature="0" /><path
           d="m 885.902,2004.18 3460,0 0,46.9961 -3460,0 0,-46.9961 z"
           style="fill:#4478c3;fill-opacity:1;fill-rule:nonzero;stroke:none"
           id="path3678"
           inkscape:connector-curvature="0" /><path
           d="m 885.902,1957.2 3460,0 0,47 -3460,0 0,-47 z"
           style="fill:#4579c3;fill-opacity:1;fill-rule:nonzero;stroke:none"
           id="path3680"
           inkscape:connector-curvature="0" /><path
           d="m 885.902,1910.22 3460,0 0,47 -3460,0 0,-47 z"
           style="fill:#4579c4;fill-opacity:1;fill-rule:nonzero;stroke:none"
           id="path3682"
           inkscape:connector-curvature="0" /><path
           d="m 885.902,1863.24 3460,0 0,46.9961 -3460,0 0,-46.9961 z"
           style="fill:#467ac4;fill-opacity:1;fill-rule:nonzero;stroke:none"
           id="path3684"
           inkscape:connector-curvature="0" /><path
           d="m 885.902,1816.26 3460,0 0,47 -3460,0 0,-47 z"
           style="fill:#477ac4;fill-opacity:1;fill-rule:nonzero;stroke:none"
           id="path3686"
           inkscape:connector-curvature="0" /><path
           d="m 885.902,1769.29 3460,0 0,46.9961 -3460,0 0,-46.9961 z"
           style="fill:#487ac4;fill-opacity:1;fill-rule:nonzero;stroke:none"
           id="path3688"
           inkscape:connector-curvature="0" /><path
           d="m 885.902,1722.3 3460,0 0,47 -3460,0 0,-47 z"
           style="fill:#497bc5;fill-opacity:1;fill-rule:nonzero;stroke:none"
           id="path3690"
           inkscape:connector-curvature="0" /><path
           d="m 885.902,1675.33 3460,0 0,46.9961 -3460,0 0,-46.9961 z"
           style="fill:#497bc5;fill-opacity:1;fill-rule:nonzero;stroke:none"
           id="path3692"
           inkscape:connector-curvature="0" /><path
           d="m 885.902,1628.35 3460,0 0,47 -3460,0 0,-47 z"
           style="fill:#4a7cc5;fill-opacity:1;fill-rule:nonzero;stroke:none"
           id="path3694"
           inkscape:connector-curvature="0" /><path
           d="m 885.902,1581.37 3460,0 0,46.9961 -3460,0 0,-46.9961 z"
           style="fill:#4b7cc5;fill-opacity:1;fill-rule:nonzero;stroke:none"
           id="path3696"
           inkscape:connector-curvature="0" /><path
           d="m 885.902,1534.39 3460,0 0,47 -3460,0 0,-47 z"
           style="fill:#4c7dc6;fill-opacity:1;fill-rule:nonzero;stroke:none"
           id="path3698"
           inkscape:connector-curvature="0" /><path
           d="m 885.902,1487.41 3460,0 0,47 -3460,0 0,-47 z"
           style="fill:#4d7dc6;fill-opacity:1;fill-rule:nonzero;stroke:none"
           id="path3700"
           inkscape:connector-curvature="0" /><path
           d="m 885.902,1440.43 3460,0 0,46.9961 -3460,0 0,-46.9961 z"
           style="fill:#4e7ec6;fill-opacity:1;fill-rule:nonzero;stroke:none"
           id="path3702"
           inkscape:connector-curvature="0" /><path
           d="m 885.902,1393.45 3460,0 0,47 -3460,0 0,-47 z"
           style="fill:#4f7ec6;fill-opacity:1;fill-rule:nonzero;stroke:none"
           id="path3704"
           inkscape:connector-curvature="0" /><path
           d="m 885.902,1346.48 3460,0 0,46.9961 -3460,0 0,-46.9961 z"
           style="fill:#507fc7;fill-opacity:1;fill-rule:nonzero;stroke:none"
           id="path3706"
           inkscape:connector-curvature="0" /><path
           d="m 885.902,1299.5 3460,0 0,47 -3460,0 0,-47 z"
           style="fill:#507fc7;fill-opacity:1;fill-rule:nonzero;stroke:none"
           id="path3708"
           inkscape:connector-curvature="0" /><path
           d="m 885.902,1252.52 3460,0 0,46.9961 -3460,0 0,-46.9961 z"
           style="fill:#5180c7;fill-opacity:1;fill-rule:nonzero;stroke:none"
           id="path3710"
           inkscape:connector-curvature="0" /><path
           d="m 885.902,1205.54 3460,0 0,47 -3460,0 0,-47 z"
           style="fill:#5280c7;fill-opacity:1;fill-rule:nonzero;stroke:none"
           id="path3712"
           inkscape:connector-curvature="0" /><path
           d="m 885.902,1158.56 3460,0 0,47 -3460,0 0,-47 z"
           style="fill:#5380c8;fill-opacity:1;fill-rule:nonzero;stroke:none"
           id="path3714"
           inkscape:connector-curvature="0" /><path
           d="m 885.902,1111.58 3460,0 0,46.9961 -3460,0 0,-46.9961 z"
           style="fill:#5481c8;fill-opacity:1;fill-rule:nonzero;stroke:none"
           id="path3716"
           inkscape:connector-curvature="0" /><path
           d="m 885.902,1064.6 3460,0 0,47 -3460,0 0,-47 z"
           style="fill:#5481c8;fill-opacity:1;fill-rule:nonzero;stroke:none"
           id="path3718"
           inkscape:connector-curvature="0" /></g></g><path
       d="m 1360.84,2553.75 c 0,412.61 238.59,747.09 532.91,747.09 294.32,0 532.91,-334.48 532.91,-747.09 0,-412.61 -238.59,-747.09 -532.91,-747.09 -294.32,0 -532.91,334.48 -532.91,747.09"
       style="fill:#ffffff;fill-opacity:1;fill-rule:nonzero;stroke:none"
       id="path3720"
       inkscape:connector-curvature="0" /><path
       d="m 1360.84,2553.75 c 0,412.61 238.59,747.09 532.91,747.09 294.32,0 532.91,-334.48 532.91,-747.09 0,-412.61 -238.59,-747.09 -532.91,-747.09 -294.32,0 -532.91,334.48 -532.91,747.09 z"
       style="fill:none;stroke:#ffffff;stroke-width:10;stroke-linecap:butt;stroke-linejoin:miter;stroke-miterlimit:3.86370993;stroke-opacity:1;stroke-dasharray:none"
       id="path3722"
       inkscape:connector-curvature="0" /><path
       d="m 2848.33,2815.42 c 0,412.61 238.59,747.09 532.91,747.09 294.32,0 532.91,-334.48 532.91,-747.09 0,-412.61 -238.59,-747.09 -532.91,-747.09 -294.32,0 -532.91,334.48 -532.91,747.09"
       style="fill:#ffffff;fill-opacity:1;fill-rule:nonzero;stroke:none"
       id="path3724"
       inkscape:connector-curvature="0" /><path
       d="m 2848.33,2815.42 c 0,412.61 238.59,747.09 532.91,747.09 294.32,0 532.91,-334.48 532.91,-747.09 0,-412.61 -238.59,-747.09 -532.91,-747.09 -294.32,0 -532.91,334.48 -532.91,747.09 z"
       style="fill:none;stroke:#ffffff;stroke-width:10;stroke-linecap:butt;stroke-linejoin:miter;stroke-miterlimit:3.86370993;stroke-opacity:1;stroke-dasharray:none"
       id="path3726"
       inkscape:connector-curvature="0" /><path
       d="m 1627.49,2570 c 0,259.12 143.27,469.16 320,469.16 8.14,0 16.2,-0.44 24.18,-1.32 l 0,-387.84 291.19,0 c 3.05,-26 4.63,-52.73 4.63,-80 0,-259.12 -143.26,-469.16 -320,-469.16 -176.73,0 -320,210.04 -320,469.16"
       style="fill:#231f20;fill-opacity:1;fill-rule:nonzero;stroke:none"
       id="path3728"
       inkscape:connector-curvature="0" /><path
       d="m 1627.49,2570 c 0,259.12 143.27,469.16 320,469.16 8.14,0 16.2,-0.44 24.18,-1.32 l 0,-387.84 291.19,0 c 3.05,-26 4.63,-52.73 4.63,-80 0,-259.12 -143.26,-469.16 -320,-469.16 -176.73,0 -320,210.04 -320,469.16 z"
       style="fill:none;stroke:#231f20;stroke-width:10;stroke-linecap:butt;stroke-linejoin:miter;stroke-miterlimit:3.86370993;stroke-opacity:1;stroke-dasharray:none"
       id="path3730"
       inkscape:connector-curvature="0" /><path
       d="m 3127.49,2820 c 0,259.12 143.27,469.16 320,469.16 8.14,0 16.2,-0.44 24.18,-1.32 l 0,-387.84 291.19,0 c 3.05,-26 4.63,-52.73 4.63,-80 0,-259.12 -143.26,-469.16 -320,-469.16 -176.73,0 -320,210.04 -320,469.16"
       style="fill:#231f20;fill-opacity:1;fill-rule:nonzero;stroke:none"
       id="path3732"
       inkscape:connector-curvature="0" /><path
       d="m 3127.49,2820 c 0,259.12 143.27,469.16 320,469.16 8.14,0 16.2,-0.44 24.18,-1.32 l 0,-387.84 291.19,0 c 3.05,-26 4.63,-52.73 4.63,-80 0,-259.12 -143.26,-469.16 -320,-469.16 -176.73,0 -320,210.04 -320,469.16 z"
       style="fill:none;stroke:#231f20;stroke-width:10;stroke-linecap:butt;stroke-linejoin:miter;stroke-miterlimit:3.86370993;stroke-opacity:1;stroke-dasharray:none"
       id="path3734"
       inkscape:connector-curvature="0" /></g></g>
</g></g></svg>